<svg xmlns="http://www.w3.org/2000/svg" viewBox="0 0 400 400"><g fill="#d4d4d4" stroke-width="0"><path d="M101.3 100.7c-1 .4-1.3 21.3-1.3 99.9V300h200V100l-98.7.1c-54.4 0-99.4.3-100 .6m106.8 34.7c4.4.8 12.1 6.1 15.4 10.7 1.3 1.9 2.9 4 3.5 4.6.6.7.9 1.3.7 1.3s.4 3 1.3 6.6c1.6 6.2 1.6 7 0 12.9-.9 3.4-2.6 7.8-3.8 9.7-2.4 3.8-9.6 10.8-11.2 10.8-.5 0-1 .8-1 1.8 0 1.2 1.5 2.3 4.8 3.4 8.1 2.9 13.5 7.8 17.6 15.9 2 3.9 3.5 7.4 3.2 7.6-.2.3.2 2.6.9 5.1.8 2.6 2.3 8.3 3.5 12.7 1.1 4.4 2.3 8.7 2.7 9.5.3.8.7 2.8.9 4.4s.9 3.5 1.5 4.3c.6.7.8 1.3.5 1.3-.4 0-.2.8.3 1.9.8 1.4.5 2.3-1.5 4.2l-2.6 2.4-44.6.1-44.5.1-3.1-2.8c-2.6-2.3-2.8-2.9-1.7-4.3.7-.9 1-1.6.6-1.6s-.3-.6.3-1.3c.5-.6 1.5-3.9 2.2-7.2s1.6-6.9 2.1-8c.6-1.1 1.2-3.4 1.4-5 .2-1.7.4-3.1.6-3.3.1-.1.2-.5.3-1 .1-.4.4-1.2.8-1.7.6-.9 2.1-7.6 2.3-10 0-.6 1-3.2 2.3-5.9 1.2-2.7 2.2-5.1 2.3-5.5.1-1.7 11.9-10.4 16.1-11.9 3.3-1.1 4.8-2.2 4.8-3.4 0-1-.4-1.8-.9-1.8-2.2 0-10.3-8.6-12.7-13.7-2.3-4.6-2.8-6.9-2.7-13.2 0-10 2.6-16.2 9.8-23 4.7-4.5 6.2-5.3 13.2-7 4.3-1 8.5-1.5 9.3-1.1s3.1 1 5.1 1.4"/><path d="M205 138.9c0 .6.7 1.1 1.7 1.1 2.6 0 9.9 4.7 12.7 8.2 1.4 1.8 2.7 3 3 2.7.3-.2-.6-1.9-2-3.7-3.7-4.7-15.4-11-15.4-8.3m-14.5 57.7c-.8 1.2-3 2.5-4.9 2.8-2 .4-3.6 1.1-3.6 1.6 0 1.3.1 1.3 5.4-1 2.5-1 4.6-2.4 4.6-2.9 0-.6 3-1.1 6.8-1.3l6.7-.3-6.8-.5c-6.1-.5-6.9-.3-8.2 1.6M180 202c0 .5-.7 1-1.5 1s-1.5.4-1.5 1c0 .5-.6 1-1.4 1-1.8 0-7.7 7-7 8.2.3.4 0 .8-.5.8-.6 0-1.1.4-1.1 1 0 2.1 1.7.8 3.3-2.5.9-1.9 3.7-5 6.2-6.7 3.9-2.8 5.6-4.8 4-4.8-.3 0-.5.4-.5 1m44.6 4.4c2.2 1.9 4.8 5.3 5.9 7.5 2.1 4.7 3.9 5.6 2.4 1.1-.6-1.7-1.5-3-2-3s-.9-.6-.9-1.4c0-1.6-6.5-7.6-8.2-7.6-.6 0 .6 1.5 2.8 3.4"/></g><path fill="#ffd4d4" d="M182.8 266.7c2.8.2 7.6.2 10.5 0 2.8-.2.5-.3-5.3-.3s-8.1.1-5.2.3m24.5 0c4.2.2 11.2.2 15.5 0 4.2-.1.7-.3-7.8-.3s-12 .2-7.7.3"/><path fill="#aaa" d="M191.9 140.5c-8.7 2.8-16.9 14.6-16.9 24.5 0 4.1 2.8 12.2 5.1 15 1.1 1.4 1.7 1.9 1.3 1.1-.5-.9-.3-1.2.5-.7.6.4.9 1.1.6 1.5-.4.8 1.7 3 4.4 4.6.9.5.6-.5-.8-2.8-2.2-3.5-2.2-3.6-.1-3.4 1.1.1 2 .5 2 .9 0 1.3 4.5.9 5.9-.5 1-1 1.1-.8.5.7s-.4 1.7.6 1.1c.9-.5 1.1-.4.6.4-1.3 2 2.4 2.5 4 .5 1.3-1.7 1.6-1.8 2.6-.3 1 1.4 1.7 1.5 6 .3 2.7-.7 5.6-1.8 6.4-2.5 2-1.6 2.8-.5 1.4 2-.6 1.2-1.6 1.8-2.2 1.5-.7-.5-.8-.2-.3.6 1.2 2 8-6 9.9-11.7 6.9-20.3-11.3-39.3-31.5-32.8m-.7 57.5c-.7 1.1-1.8 2-2.5 2-3.5 0-14 6.5-16.8 10.3-3.8 5.3-6.6 14.4-4.9 16 1 .9 1.1.6.5-1.3l-.7-2.5 2.1 2.5c1.7 1.9 2.6 2.2 3.9 1.4.9-.6 4.6-.9 8.1-.7 3.8.3 6.1.1 5.7-.5-.3-.5.1-1.5.8-2.1 1.2-1 1.3-.8.9.8-.4 1.7-.1 2.1 2.1 2.1 1.4 0 2.6.4 2.6 1 0 .5.7 1 1.5 1s1.5-.5 1.5-1c0-.6.5-1 1.1-1 .5 0 .8.4.4 1-.3.5.5.9 1.7.8 3.8-.1 4.9.2 4.3 1.2-.3.5-.1 1 .4 1 .6 0 1.1-.6 1.1-1.3 0-.9.3-.8.9.2.7 1.1.9 1.1 1.4 0 .4-1.2.7-1.1 1.6.1.7 1 1.1 1.1 1.1.2 0-.6.7-1.2 1.5-1.2s1.5-.5 1.5-1c0-1.5 7.2-1.2 12 .5 4.3 1.5 6.7 1.2 4-.5-1-.7-1.1-1-.3-1 .7 0 1.8.9 2.5 1.9 1.3 2.1 3.8 1.7 3.8-.5 0-.8-.7-1.1-1.7-.8-1.4.5-1.5.4-.4-.4 2.9-2.1-2.4-14.9-8.1-19.7-1.8-1.6-3.2-3.2-3-3.7.1-.5-.2-.7-.7-.4-1.4.9-12.1-3.3-12.8-4.9-.3-1-2.7-1.4-8.2-1.4-6.5 0-7.9.3-8.9 1.9m-13.9 64.7c12.5.2 32.9.2 45.5 0 12.5-.1 2.2-.2-22.8-.2s-35.3.1-22.7.2"/><path d="M194 135.9c-13.5 2.9-22.2 14.3-22.3 29.1-.1 6.7.3 8.2 3.3 13.9 2.4 4.5 4.9 7.5 8.3 9.9 6.3 4.5 6.1 6.7-.9 9.3-5.9 2.2-12.3 7.4-15.5 12.5-3.3 5.4-15.1 50.1-13.8 52.5.9 1.8 3 1.9 46.8 1.9 38.8 0 46-.2 47.1-1.4.9-1.2-.1-6.2-5.1-24.8-3.4-12.8-7-24.9-8-26.9-2.5-5.1-10.1-11.5-16.3-13.8-6.8-2.5-7.2-4.9-1.4-8.8 14.4-9.6 16.7-32.4 4.5-45.1-6.5-6.8-17.7-10.3-26.7-8.3m15.7 2.6c8.7 3.7 14.2 10.2 16.7 19.8 3.5 13.3-3.1 26.5-16.2 32.5-13 5.9-28.5-.6-35-14.6-2-4.5-2.3-6.5-2-12.5.6-11.7 5.5-19.4 15.5-24.3 5.8-2.8 15.4-3.2 21-.9m.7 56.8c-.1 1 1.8 2.3 5.7 3.7 6.4 2.4 12.7 7.3 15.8 12.3 2 3.3 14.1 45.8 14.1 49.7 0 1.9-.9 2-43.7 2.2-24.1.2-44.9.1-46.2-.1-2.1-.3-2.3-.8-1.7-4 .3-2 1.2-5.9 2-8.6.8-2.8 3-11.3 5.1-19 2-7.7 4.5-15.9 5.7-18.2 2.7-5.8 9.5-11.6 16.8-14.3q6-2.25 6-3.9c0-1.4 1.4-1.6 10.2-1.5 8.7.1 10.3.4 10.2 1.7"/><path fill="gray" d="M177.3 265.7c12.5.2 32.9.2 45.5 0 12.5-.1 2.2-.2-22.8-.2s-35.3.1-22.7.2"/><path fill="#80aaaa" d="M184.5 182.1c.1 1 .5 2.2 1 2.6.4.5.5.1.1-.7s.1-.5 1.1.6c2.9 3.5 6.4 4.7 12.8 4.8 6.9 0 14.7-3 16.5-6.4 1.4-2.6.6-3.8-1.4-2.1-.8.7-3.7 1.8-6.4 2.5-4.3 1.2-5 1.1-6-.3-1-1.5-1.3-1.4-2.6.3-1.6 2-5.3 1.5-4-.5.5-.8.3-.9-.6-.4-1 .6-1.2.4-.6-1.1s.5-1.7-.5-.7c-1.4 1.4-5.9 1.8-5.9.5 0-.4-.8-.8-1.8-.9-1.2-.1-1.8.5-1.7 1.8m2.6 41.2c-.6.8-.8 1.7-.3 2.1.4.4-2.2.6-5.8.4-3.6-.3-7.3 0-8.2.6-1.3.8-2.2.5-3.9-1.4l-2.1-2.5.7 2.4c.4 1.5.3 2.1-.3 1.7-.8-.5-6.8 18.9-9.8 31.6l-.6 2.8h42.5c26.2 0 42.8-.4 43.2-1 .9-1.5-7.8-31.1-9-30.6-.7.2-1.7-.5-2.3-1.5-.7-1-1.8-1.9-2.5-1.9-.8 0-.7.3.3 1 2.7 1.7.3 2-4 .5-4.8-1.7-12-2-12-.5 0 .5-.7 1-1.5 1s-1.5.6-1.5 1.2c0 .9-.4.8-1-.2-.8-1.2-1.1-1.3-1.9-.1-.7 1.1-.9 1.1-1.4 0-.4-1-.6-1-.6-.2-.1.7-.6 1.3-1.2 1.3-.5 0-.7-.5-.4-1 .6-1-.5-1.3-4.3-1.2-1.2.1-2-.3-1.7-.8.4-.6.1-1-.4-1-.6 0-1.1.4-1.1 1 0 .5-.7 1-1.5 1s-1.5-.5-1.5-1c0-.6-1.2-1-2.6-1-2.1 0-2.5-.4-2.1-2 .6-2.3.4-2.5-1.2-.7m40.4 25.6c-.3.6.1 1.1 1 1.1s1.4.4 1 .9c-1 1.7 1.8 2.4 3 .8.7-1 2-1.4 3.2-1.1 1.5.4 2.3 0 2.6-1.3s.5-1.1.6.7c0 1.5.5 3 1 3.5 1.2 1.3 1.8 5.1.9 5.3-3.6.8-81.8 0-81.8-.8 0-.5.7-.7 1.5-.4.9.4 1.5 0 1.5-1 0-.9.5-1.6 1.1-1.6.5 0 .7.6.3 1.2-.5.9-.3.9.9-.1.9-.7 1.5-1.6 1.2-2-.2-.4.5-1.5 1.6-2.4 2.6-2.3 12.9-2.4 12.9-.2 0 .9.6 1.2 1.5.8.9-.3 2.4.2 3.5 1.2 1.8 1.6 2 1.6 3.5.1.9-.9 3-1.6 4.6-1.6s2.9-.5 2.9-1c0-.6 1.8-1 4-1s4 .4 4 .9c0 .6 1.8.9 4 .8s4-.5 4-.9 1.6-.8 3.5-.8 3.5-.4 3.5-.8c0-.5 2.1-.9 4.6-1.1 3-.1 4.4.2 3.9.8"/><path fill="#80aad4" d="M219 249.2c0 .4-1.6.8-3.5.8s-3.5.4-3.5.8-1.8.8-4 .9-4-.2-4-.8c0-.5-1.8-.9-4-.9s-4 .4-4 1c0 .5-1.3 1-2.9 1s-3.7.7-4.6 1.6c-1.5 1.5-1.7 1.5-3.5-.1-1.1-1-2.6-1.5-3.5-1.2-.9.4-1.5.1-1.5-.8 0-2.2-10.3-2.1-12.9.2-1.1.9-1.8 2-1.6 2.4.3.4-.3 1.3-1.2 2-1.2 1-1.4 1-.9.1.4-.6.2-1.2-.3-1.2-.6 0-1.1.7-1.1 1.6 0 1-.6 1.4-1.5 1-.8-.3-1.5-.1-1.5.4 0 .6 15 1 40.5 1 22.3 0 40.8.1 41.2.2.3.2.7-1.1.7-2.9.1-1.7-.3-3.1-.8-3-.6.1-1.3-1.2-1.7-2.8-.4-1.7-.7-2.2-.8-1.1-.1 1.4-.6 1.7-2.3 1.3-1.3-.4-2.6 0-3.3 1-1.2 1.6-4 .9-3-.8.4-.5-.1-.9-1-.9s-1.3-.5-1-1.1c.5-.6-.9-.9-3.9-.8-2.5.2-4.6.6-4.6 1.1"/></svg>